<svg version="1.1" id="Layer_1" xmlns="http://www.w3.org/2000/svg" xmlns:xlink="http://www.w3.org/1999/xlink" x="0px" y="0px"
	 width="100%" viewBox="0 0 1024 1024" enable-background="new 0 0 1024 1024" xml:space="preserve">
<path fill="#000000" opacity="1.000000" stroke="none" 
	d="
M174.891602,495.000916 
	C165.499908,456.116730 186.636963,403.636414 240.826370,393.941162 
	C280.265625,386.884918 319.073364,407.987152 333.738098,445.096802 
	C344.084747,471.279449 341.969788,496.781891 326.809540,521.022766 
	C310.578613,546.975708 291.018921,570.313660 271.076080,593.378967 
	C268.681244,596.148743 266.296295,598.952332 263.658020,601.480591 
	C259.332245,605.625977 253.319839,605.878906 249.380249,601.462708 
	C223.971786,572.979919 199.271713,543.937256 180.886703,510.179962 
	C178.335098,505.494873 176.453781,500.508240 174.891602,495.000916 
M211.738983,518.271912 
	C211.725647,511.108917 211.716354,503.945892 211.696182,496.782898 
	C211.690994,494.939941 211.513657,493.466400 209.605133,492.155518 
	C203.397308,487.891693 202.921875,483.038940 208.153732,477.713104 
	C221.810364,463.811188 235.544540,449.984680 249.334763,436.215179 
	C254.039902,431.517120 258.065765,431.418579 262.794250,436.090363 
	C277.013123,450.138702 291.146423,464.275543 305.173309,478.515533 
	C310.362000,483.783081 309.189514,489.309875 302.470947,492.384613 
	C300.633331,493.225616 299.356110,494.054077 299.366364,496.301636 
	C299.414642,506.905060 299.387878,517.508789 299.387878,528.112427 
	C303.385681,524.066956 306.340515,519.536011 309.496948,515.150146 
	C331.910645,484.005676 323.065155,447.153381 299.882141,426.739960 
	C269.979248,400.409393 222.921097,406.152924 201.708435,439.759735 
	C182.738815,469.812958 189.159348,499.294525 211.751862,525.460693 
	C211.751862,523.475220 211.751862,521.330200 211.738983,518.271912 
M283.032776,550.553528 
	C287.454193,544.933838 291.875610,539.314148 296.735474,533.137207 
	C269.534790,534.583313 243.379807,534.716919 217.004791,533.400085 
	C223.692078,544.007568 251.582520,578.097656 256.784515,581.793274 
	C265.956787,572.126526 274.067169,561.436951 283.032776,550.553528 
M273.107422,472.415527 
	C268.633636,467.945129 264.091217,463.540588 259.713379,458.978119 
	C257.326660,456.490814 255.400131,455.954498 252.718643,458.761932 
	C246.280655,465.502472 239.622696,472.034271 232.996674,478.592896 
	C231.103561,480.466736 230.231644,482.539185 230.267227,485.251648 
	C230.380798,493.907684 230.425644,502.568878 230.238586,511.222534 
	C230.162064,514.762390 231.522110,515.837585 234.925842,515.807800 
	C248.910034,515.685120 262.897217,515.664368 276.880524,515.834167 
	C280.693237,515.880432 281.805206,514.364929 281.703735,510.804321 
	C281.528290,504.649414 281.172729,498.433685 281.804016,492.337860 
	C282.653656,484.133606 280.383789,477.672485 273.107422,472.415527 
z"/>
<path fill="#000000" opacity="1.000000" stroke="none" 
	d="
M669.300110,419.260254 
	C676.473328,432.434540 683.434814,445.260284 690.985779,459.171967 
	C693.914368,453.864899 696.324646,449.604370 698.633301,445.289551 
	C702.640625,437.800049 706.810486,430.384521 710.465210,422.724701 
	C712.419373,418.629120 715.039368,417.064026 719.448853,417.559570 
	C722.394165,417.890564 725.406860,417.622437 728.129395,417.622437 
	C729.815063,419.251068 729.321716,421.015106 729.324402,422.608429 
	C729.359497,443.602417 729.132935,464.600098 729.483826,485.588287 
	C729.582153,491.472107 726.642883,491.361084 722.446838,491.462799 
	C717.924316,491.572449 715.325256,490.950745 715.554321,485.352783 
	C715.983215,474.872955 715.714050,464.363617 715.686523,453.866699 
	C715.680054,451.390350 715.479980,448.914520 715.344604,445.894775 
	C713.337280,446.935913 712.819702,448.437958 712.090698,449.807770 
	C707.474121,458.482788 702.723083,467.088196 698.242554,475.832428 
	C696.820374,478.607880 695.054810,479.712372 691.964294,479.463531 
	C688.696838,479.200439 685.511230,479.893738 683.565247,475.852051 
	C679.522034,467.454559 675.013733,459.279510 670.625244,451.051086 
	C669.825806,449.552216 669.547546,447.478363 667.323914,447.058075 
	C665.740173,448.703918 666.396301,450.637329 666.385681,452.371429 
	C666.318420,463.367889 666.123474,474.371826 666.454956,485.358734 
	C666.603943,490.296448 664.847107,492.022980 660.149048,491.392212 
	C658.674133,491.194153 657.154541,491.317230 655.655396,491.313660 
	C653.563538,491.308655 652.676697,490.200378 652.677246,488.186249 
	C652.683411,464.896851 652.681152,441.607452 652.681152,417.717346 
	C658.491455,418.136108 663.874817,416.235107 669.300110,419.260254 
z"/>
<path fill="#000000" opacity="1.000000" stroke="none" 
	d="
M426.358704,461.226501 
	C424.618317,463.277496 426.247833,464.536102 427.021362,465.868652 
	C430.866028,472.491516 434.793457,479.066254 438.665314,485.673401 
	C439.565216,487.209015 440.830231,488.635712 440.593353,490.913605 
	C435.755768,491.809601 430.958862,491.302032 426.192688,491.270172 
	C423.536102,491.252441 422.745117,488.836884 421.707855,487.063477 
	C417.842773,480.455475 413.917114,473.864502 410.470703,467.036652 
	C408.244080,462.625488 404.602234,463.114471 401.061615,463.558167 
	C397.032013,464.063110 398.423553,467.597229 398.344086,469.988647 
	C398.161621,475.478546 398.150177,480.983948 398.346283,486.473145 
	C398.476593,490.120361 397.132477,491.745483 393.426117,491.392731 
	C391.775269,491.235626 390.094421,491.287537 388.433258,491.368805 
	C385.635620,491.505676 384.640228,490.171967 384.646637,487.464508 
	C384.698669,465.480347 384.680206,443.496002 384.685120,421.511719 
	C384.685547,419.574463 384.851776,417.697144 387.456726,417.709167 
	C398.609192,417.760712 409.830536,417.104462 420.893341,418.136597 
	C430.857178,419.066162 437.656403,426.239105 439.185028,434.793304 
	C441.314697,446.711121 437.532654,454.614349 426.358704,461.226501 
M421.401123,447.901886 
	C427.486389,439.644287 424.916168,432.351379 415.123260,429.985168 
	C410.843292,428.951019 406.518951,429.465149 402.214111,429.518280 
	C399.673004,429.549652 398.263214,430.924713 398.294525,433.630157 
	C398.350342,438.452454 398.324615,443.275696 398.342316,448.098480 
	C398.348175,449.704193 398.701965,451.384491 400.581268,451.416687 
	C407.483704,451.535034 414.615051,452.923737 421.401123,447.901886 
z"/>
<path fill="#000000" opacity="1.000000" stroke="none" 
	d="
M643.332886,454.390167 
	C643.344482,465.340088 643.196045,475.835205 643.416321,486.322601 
	C643.500000,490.306122 642.076355,491.863495 638.213867,491.363770 
	C637.722534,491.300171 637.215759,491.356781 636.716125,491.356628 
	C629.720947,491.354431 629.708435,491.354431 629.692017,484.570709 
	C629.672729,476.576813 629.731323,468.582397 629.655945,460.589111 
	C629.593872,453.996094 625.970886,449.631378 620.635681,449.502533 
	C614.857666,449.362976 610.684204,453.402863 610.451477,460.141693 
	C610.158447,468.625397 610.187500,477.131256 610.428406,485.617615 
	C610.547852,489.825226 609.400085,492.035736 604.853638,491.366302 
	C604.364990,491.294373 603.855896,491.363892 603.356262,491.364929 
	C596.661682,491.379089 596.647461,491.378998 596.640381,484.896759 
	C596.631836,477.069366 596.680359,469.241852 596.649231,461.414612 
	C596.616760,453.239502 593.660767,449.504791 587.241638,449.401794 
	C580.493591,449.293579 576.423828,453.754883 576.365356,461.480835 
	C576.303589,469.640900 576.172852,477.806824 576.413696,485.960083 
	C576.534302,490.041687 575.211426,491.869446 571.026672,491.391052 
	C569.381592,491.202972 567.699280,491.310699 566.034485,491.331360 
	C563.752563,491.359680 562.724731,490.263306 562.727478,487.985229 
	C562.745850,472.663849 562.726746,457.342468 562.739929,442.021088 
	C562.741272,440.460205 562.980042,438.753265 564.993958,438.804810 
	C569.060852,438.908752 573.298218,437.360840 577.152649,439.727112 
	C578.531677,440.573792 579.614502,440.080231 580.898987,439.633820 
	C589.422180,436.671692 597.758789,435.667938 605.235779,442.313019 
	C607.196838,444.055847 608.684021,442.542480 610.057617,441.459290 
	C616.146729,436.657410 623.239502,436.765167 630.096069,438.178406 
	C638.239563,439.856873 641.966736,446.105774 643.332886,454.390167 
z"/>
<path fill="#000000" opacity="1.000000" stroke="none" 
	d="
M569.307739,575.986084 
	C569.306824,577.982971 569.307373,579.482849 569.306091,580.982788 
	C569.299561,588.466797 569.293701,588.264587 562.034668,588.468079 
	C558.153870,588.576965 555.887634,587.651733 556.608154,582.518982 
	C550.006958,588.379089 543.082092,590.377991 535.259766,588.795654 
	C519.764160,585.661255 514.856506,571.654602 515.210876,559.460022 
	C515.278076,557.147949 515.557007,554.791870 516.120972,552.552490 
	C520.218872,536.280579 535.970398,528.971008 551.318054,536.140747 
	C552.062378,536.488403 552.821106,536.805115 553.852905,537.259521 
	C555.779541,533.543701 554.605225,529.694946 554.908997,526.023499 
	C555.018494,524.699768 554.914612,523.358521 554.911926,522.025269 
	C554.892517,512.421021 554.893372,512.627380 564.390869,512.601624 
	C568.553650,512.590332 569.414062,514.314331 569.366333,517.992676 
	C569.215088,529.656738 569.319519,541.324158 569.320190,552.990234 
	C569.320618,560.489868 569.312622,567.989502 569.307739,575.986084 
M530.193665,568.110107 
	C531.878967,573.676453 535.866882,576.750671 541.389038,577.454773 
	C546.270325,578.077209 550.244934,575.632874 552.852966,571.684082 
	C556.379272,566.345154 556.524658,560.392883 554.486023,554.436096 
	C552.394592,548.325500 547.335022,545.487000 540.222900,546.205505 
	C534.601501,546.773376 530.144531,551.019592 529.473267,556.946655 
	C529.083435,560.388977 528.858093,563.922791 530.193665,568.110107 
z"/>
<path fill="#000000" opacity="1.000000" stroke="none" 
	d="
M833.041382,482.816071 
	C825.598511,470.137665 826.015503,456.305511 833.861816,446.448822 
	C840.866760,437.648987 850.371765,435.996124 860.456360,438.251740 
	C870.465942,440.490509 876.380432,447.545135 878.333191,457.615082 
	C880.592773,469.266907 880.473267,469.311432 868.627991,469.315155 
	C861.797119,469.317291 854.965942,469.290375 848.135681,469.358521 
	C846.362610,469.376190 844.445618,468.951233 842.913940,470.292511 
	C842.773926,479.419098 854.077393,485.699341 862.726501,479.331451 
	C866.365051,476.652588 869.800232,476.245270 873.834167,476.622284 
	C878.366272,477.045868 879.262146,478.468201 876.534485,482.259949 
	C870.151306,491.133331 860.909790,493.691528 850.564026,492.837189 
	C843.441040,492.248901 837.521484,489.037140 833.041382,482.816071 
M845.463440,458.609222 
	C851.743286,458.222626 858.218994,459.778320 864.371216,457.342224 
	C863.014160,451.371826 859.911133,448.519287 854.898865,448.139740 
	C849.809753,447.754333 845.131958,450.650330 843.544678,455.242249 
	C843.077820,456.592804 842.170288,458.229340 845.463440,458.609222 
z"/>
<path fill="#000000" opacity="1.000000" stroke="none" 
	d="
M593.313721,588.214600 
	C581.116638,583.603394 574.229431,573.105042 574.822449,560.555237 
	C575.463867,546.982910 582.624817,536.859375 594.582275,534.310059 
	C613.343018,530.310242 627.102966,543.095886 626.317505,561.891052 
	C626.173035,565.347778 623.900024,565.321106 621.470947,565.320740 
	C612.477844,565.319397 603.484436,565.278442 594.491821,565.347656 
	C589.186523,565.388428 588.488647,566.602539 590.860046,571.222290 
	C594.902039,579.096313 603.466797,580.771545 611.118958,575.184937 
	C615.740601,571.810791 620.543518,571.610535 625.187073,574.598328 
	C622.430725,585.324768 608.180908,591.530273 593.313721,588.214600 
M597.437317,544.534180 
	C594.396362,545.784302 592.148315,547.897461 590.827393,550.895325 
	C590.093079,552.561768 589.951233,554.537170 592.351868,554.611450 
	C598.871643,554.812927 605.401672,554.680603 611.961609,554.680603 
	C611.360535,546.981689 607.096863,544.007568 597.437317,544.534180 
z"/>
<path fill="#000000" opacity="1.000000" stroke="none" 
	d="
M553.931396,477.595886 
	C548.814697,488.171173 540.251709,492.816284 529.297791,493.044220 
	C519.127014,493.255859 510.910034,489.170929 505.433197,480.299713 
	C495.244781,463.796753 505.592651,439.527283 523.591858,437.686829 
	C547.984619,435.192627 562.484924,453.996948 553.931396,477.595886 
M529.429077,480.985748 
	C540.510986,481.439941 545.555603,467.441315 541.301147,457.216949 
	C537.873108,448.978668 528.108276,446.405914 520.979431,451.782166 
	C515.950500,455.574768 513.835388,463.229828 515.851868,470.340027 
	C517.688110,476.814606 521.642395,480.122009 529.429077,480.985748 
z"/>
<path fill="#000000" opacity="1.000000" stroke="none" 
	d="
M393.053223,513.667053 
	C404.867096,513.668945 416.195435,513.890259 427.509003,513.578247 
	C432.846588,513.431091 432.340790,516.603394 432.340698,520.013916 
	C432.340607,523.452209 432.749207,526.642090 427.445557,526.412415 
	C419.302185,526.059631 411.130493,526.418457 402.974304,526.275818 
	C399.628601,526.217346 398.147003,527.259644 398.241058,530.838318 
	C398.712250,548.768738 395.667206,545.205811 412.323364,545.618530 
	C415.817902,545.705139 419.331757,545.849060 422.809082,545.592224 
	C427.920959,545.214661 427.253967,548.643555 427.356232,551.813965 
	C427.463135,555.127869 427.248657,557.667175 422.726105,557.469177 
	C416.245575,557.185364 409.742065,557.458069 403.248810,557.419128 
	C399.707153,557.397888 398.154968,558.935608 398.242126,562.580078 
	C398.401306,569.236389 398.150269,575.903198 398.340515,582.557922 
	C398.446838,586.276794 396.970123,587.793518 393.344177,587.388916 
	C392.851044,587.333984 392.346069,587.385376 391.846558,587.387573 
	C384.665466,587.419006 384.658112,587.419006 384.656433,580.391113 
	C384.651703,560.743652 384.650940,541.096130 384.654266,521.448669 
	C384.655548,513.698364 384.662384,513.698364 393.053223,513.667053 
z"/>
<path fill="#000000" opacity="1.000000" stroke="none" 
	d="
M451.520691,487.603943 
	C441.708649,479.447418 439.611328,468.949707 441.982178,457.577209 
	C443.984924,447.970459 449.938721,440.744415 459.783539,438.586517 
	C474.039917,435.461700 484.523285,438.032654 491.947968,450.160797 
	C498.787048,461.332336 496.800232,476.735443 487.774048,485.692291 
	C478.801544,494.595917 463.743927,495.490540 451.520691,487.603943 
M476.634827,451.733734 
	C468.525391,447.078278 460.042603,448.975586 456.564575,456.357086 
	C454.032928,461.730133 453.926636,467.291077 456.174530,472.788971 
	C458.349854,478.109406 462.917358,480.979126 468.730682,480.970856 
	C474.540619,480.962585 478.678650,478.247040 480.781067,472.930939 
	C483.763184,465.390320 483.182953,458.290161 476.634827,451.733734 
z"/>
<path fill="#000000" opacity="1.000000" stroke="none" 
	d="
M744.155823,444.213684 
	C751.830994,437.004211 765.703308,435.182831 774.587830,440.085602 
	C779.573181,442.836700 782.521484,447.181946 783.280457,452.787537 
	C784.895630,464.717438 783.487061,476.741882 784.195801,488.706482 
	C784.309631,490.628571 783.575562,492.168518 781.448608,492.010040 
	C778.503174,491.790558 775.051880,493.602539 772.788513,490.280853 
	C772.181946,489.390594 772.481079,487.962830 770.988892,487.170654 
	C765.761658,491.489014 759.744019,493.757874 752.711304,492.659821 
	C741.917053,490.974457 737.251831,485.648102 737.634033,475.305084 
	C737.932800,467.218140 744.711548,461.187378 754.315063,460.679474 
	C758.468384,460.459778 762.644714,460.472809 766.803040,460.609100 
	C770.580383,460.732941 771.374268,458.732605 770.946289,455.550293 
	C770.421814,451.650726 768.208984,449.367004 764.487732,448.150848 
	C760.112915,446.721191 755.921509,447.827911 753.697815,451.171417 
	C749.692200,457.193848 745.165833,455.213562 740.217590,453.674316 
	C740.094299,449.899017 741.672852,447.059174 744.155823,444.213684 
M751.303345,477.146698 
	C752.253113,481.430969 755.626770,482.536499 759.237671,482.516510 
	C764.145325,482.489349 767.695557,479.842072 769.819946,475.415100 
	C771.920898,471.037170 770.830994,469.158844 766.095764,469.085541 
	C763.436035,469.044373 760.755493,469.078186 758.114929,469.362854 
	C753.989746,469.807556 751.287781,471.852448 751.303345,477.146698 
z"/>
<path fill="#000000" opacity="1.000000" stroke="none" 
	d="
M502.988342,587.384705 
	C495.699982,587.300781 495.689087,587.300781 495.673157,580.500549 
	C495.654846,572.680298 495.713379,564.859436 495.635986,557.039917 
	C495.565399,549.908508 492.036621,546.121094 485.611023,546.073059 
	C478.559998,546.020386 474.487640,549.941040 474.384583,557.177490 
	C474.268494,565.328979 474.107239,573.493347 474.443115,581.632446 
	C474.638123,586.358154 472.845154,587.970764 468.397186,587.407166 
	C467.086456,587.241150 465.734833,587.306213 464.407990,587.377441 
	C461.575867,587.529541 460.655243,586.101746 460.665192,583.435364 
	C460.720917,568.460693 460.729797,553.485474 460.661987,538.510864 
	C460.649536,535.760803 461.754883,534.257385 464.454651,534.693665 
	C467.982483,535.263794 472.909485,532.190247 474.373474,538.681519 
	C480.930725,534.337708 487.700348,532.307678 495.280060,534.461304 
	C504.298035,537.023621 509.220795,543.223816 509.321289,552.638123 
	C509.424286,562.287598 509.122345,571.946411 509.442017,581.586426 
	C509.596497,586.244751 507.969208,588.029236 502.988342,587.384705 
z"/>
<path fill="#000000" opacity="1.000000" stroke="none" 
	d="
M798.687012,480.513428 
	C798.656372,471.572723 798.510498,463.080109 798.709167,454.595581 
	C798.798584,450.776459 797.608032,448.868103 793.605225,449.356934 
	C789.207764,449.894012 788.752625,447.218781 788.890015,443.797363 
	C789.018860,440.592102 788.449280,437.026306 793.490479,437.638641 
	C797.924561,438.177185 799.054321,435.840088 798.659241,431.999847 
	C798.574524,431.176392 798.648621,430.336548 798.649353,429.504272 
	C798.657471,420.213470 798.654175,420.328796 807.968689,420.597351 
	C811.124390,420.688354 812.579163,421.679260 812.367310,424.952087 
	C812.206421,427.438171 812.423401,429.946655 812.328186,432.439667 
	C812.213867,435.431091 812.618652,437.731628 816.486450,437.669556 
	C818.918823,437.630554 821.454163,437.127350 823.766296,438.204071 
	C824.706604,439.682098 824.316101,441.218170 824.329712,442.677612 
	C824.390503,449.203583 824.361328,449.442596 817.897034,449.271210 
	C813.625732,449.157959 811.948242,450.389862 812.248962,454.912384 
	C812.645691,460.878571 812.286438,466.891693 812.369507,472.883026 
	C812.442017,478.115021 814.133301,480.067932 819.255554,479.677399 
	C823.751465,479.334656 824.973267,481.104553 825.284241,485.242188 
	C825.605591,489.518158 824.458679,492.038055 819.967163,492.215149 
	C816.980347,492.332916 813.936035,492.519318 811.000488,492.097260 
	C804.518677,491.165283 799.810852,487.980774 798.687012,480.513428 
z"/>
<path fill="#000000" opacity="1.000000" stroke="none" 
	d="
M640.941833,587.381592 
	C632.661133,587.382080 632.656494,587.382080 632.656250,579.495483 
	C632.655884,566.169312 632.759399,552.842041 632.601807,539.517761 
	C632.558533,535.858948 633.762817,534.233093 637.466309,534.621338 
	C638.619446,534.742126 639.801941,534.709717 640.961365,534.621521 
	C644.344238,534.364258 647.022400,534.937561 646.386536,539.682129 
	C650.660889,536.937561 654.449280,534.647705 659.189148,534.625000 
	C662.123413,534.610962 663.563782,535.591125 663.348511,538.657715 
	C663.232117,540.315125 663.223633,541.996582 663.358337,543.651489 
	C663.599548,546.615662 662.208740,547.669617 659.369690,548.090027 
	C650.019287,549.474670 646.458862,553.666565 646.356445,563.087769 
	C646.285889,569.583557 646.185181,576.085449 646.391113,582.575317 
	C646.509521,586.307800 645.052551,587.814148 640.941833,587.381592 
z"/>
<path fill="#000000" opacity="1.000000" stroke="none" 
	d="
M438.674377,537.571899 
	C438.610107,534.367859 440.556580,534.638184 442.434204,534.486206 
	C454.783966,533.486511 452.210999,534.458191 452.304260,543.367310 
	C452.438171,556.157104 452.180267,568.952148 452.410065,581.739197 
	C452.487335,586.038513 451.239685,588.038574 446.785614,587.399353 
	C445.971924,587.282593 445.114502,587.291992 444.298309,587.400940 
	C440.018555,587.972412 438.487274,586.329590 438.564636,581.860413 
	C438.817627,567.246216 438.661987,552.624878 438.674377,537.571899 
z"/>
<path fill="#000000" opacity="1.000000" stroke="none" 
	d="
M444.271942,528.211548 
	C440.167572,527.078796 437.807922,524.927734 437.622742,520.806396 
	C437.482208,517.679016 438.516876,515.256226 441.347778,513.803955 
	C444.750916,512.058044 448.087830,512.169189 451.141876,514.601196 
	C453.889893,516.789551 453.946564,519.900818 453.126617,522.818115 
	C451.979736,526.898743 448.774902,528.425232 444.271942,528.211548 
z"/>
<path fill="#000000" opacity="1.000000" stroke="none" 
	d="
M244.681580,492.992035 
	C244.817505,479.744019 243.161743,480.959442 256.016510,480.865997 
	C268.674042,480.773987 268.105438,479.513275 268.054688,492.980438 
	C268.019287,502.373871 268.022278,502.374054 258.925934,502.379852 
	C257.100342,502.381012 255.274689,502.388885 253.449158,502.379089 
	C243.714569,502.326813 244.777420,503.194092 244.681580,492.992035 
z"/>
</svg>