<?xml version="1.0" encoding="UTF-8"?>
<svg version="1.1" xmlns="http://www.w3.org/2000/svg" width="1024" height="1024">
<path d="M0 0 C337.92 0 675.84 0 1024 0 C1024 337.92 1024 675.84 1024 1024 C686.08 1024 348.16 1024 0 1024 C0 686.08 0 348.16 0 0 Z " fill="#FCFCFC" transform="translate(0,0)"/>
<path d="M0 0 C16.63582753 13.87865041 28.52949304 32.05981525 31.43554688 53.77197266 C31.7865757 58.25444626 31.90988272 62.71407482 31.93554688 67.20947266 C31.94199219 68.27464111 31.9484375 69.33980957 31.95507812 70.43725586 C31.7874499 80.81328171 29.69967698 90.40420761 24.81054688 99.58447266 C24.46137207 100.25696045 24.11219727 100.92944824 23.75244141 101.62231445 C22.66757532 103.68423534 21.55790061 105.73024405 20.43554688 107.77197266 C20.0978125 108.38943359 19.76007813 109.00689453 19.41210938 109.64306641 C10.1279187 126.37620076 -1.96938281 141.35113742 -14.140625 156.04833984 C-16.15285785 158.4842733 -18.13753062 160.94239741 -20.12695312 163.39697266 C-44.75508711 193.44781504 -44.75508711 193.44781504 -50.81445312 194.14697266 C-58.44804194 193.38361378 -62.878482 186.30281218 -67.56445312 180.77197266 C-68.47217211 179.72541408 -69.38111678 178.67991783 -70.29101562 177.63525391 C-76.79029484 170.15210945 -83.02405818 162.50818982 -89.08544922 154.66748047 C-90.64031771 152.67474376 -92.21928067 150.70299398 -93.80273438 148.73291016 C-110.18815953 128.22238441 -127.58432459 105.79265097 -133.56445312 79.77197266 C-133.75523437 79.14419922 -133.94601563 78.51642578 -134.14257812 77.86962891 C-138.14564056 57.96551289 -131.09391517 35.42091028 -120.56445312 18.77197266 C-118.06453646 15.27936559 -115.39434151 12.00150177 -112.56445312 8.77197266 C-111.97148437 8.08361328 -111.37851563 7.39525391 -110.76757812 6.68603516 C-82.75238365 -23.60389733 -31.81796568 -24.97571276 0 0 Z " fill="#33A2F1" transform="translate(306.564453125,409.22802734375)"/>
<path d="M0 0 C14.20086626 12.50016371 22.09801497 28.92117003 23.3125 47.7890625 C24.46612325 76.02566928 6.23725382 98.13225465 -10.83984375 118.78125 C-13.83685174 122.40647171 -16.73937537 126.09841684 -19.625 129.8125 C-24.90047424 136.57634653 -30.41189138 143.11853555 -36 149.625 C-36.71800781 150.47964844 -37.43601562 151.33429688 -38.17578125 152.21484375 C-38.79839844 152.94832031 -39.42101562 153.68179688 -40.0625 154.4375 C-40.58972656 155.06269531 -41.11695313 155.68789063 -41.66015625 156.33203125 C-43 157.625 -43 157.625 -45 157.625 C-46.37491299 156.11712839 -47.67364462 154.53960239 -48.9375 152.9375 C-49.741875 151.93074219 -50.54625 150.92398438 -51.375 149.88671875 C-51.80296875 149.35095215 -52.2309375 148.81518555 -52.671875 148.26318359 C-54.87405109 145.54689655 -57.16140015 142.90431104 -59.4375 140.25 C-63.94631447 134.95953224 -68.22444955 129.52548381 -72.4296875 123.9921875 C-75.2873501 120.23352069 -78.2038712 116.5219373 -81.125 112.8125 C-81.61097656 112.19511963 -82.09695312 111.57773926 -82.59765625 110.94165039 C-83.73120979 109.50232489 -84.86551722 108.06359318 -86 106.625 C-85.67 105.965 -85.34 105.305 -85 104.625 C-84.34 105.285 -83.68 105.945 -83 106.625 C-80.5169596 106.82846348 -78.1449585 106.90823755 -75.66040039 106.8996582 C-74.52602287 106.9073246 -74.52602287 106.9073246 -73.36872864 106.91514587 C-70.86162465 106.92907881 -68.35479442 106.92808233 -65.84765625 106.92578125 C-64.10892128 106.92966624 -62.37018725 106.9340005 -60.63145447 106.93876648 C-56.98384528 106.94623671 -53.33633286 106.94593169 -49.6887207 106.94067383 C-45.00985378 106.934879 -40.33138268 106.95180648 -35.65258121 106.9750185 C-32.06068091 106.98973698 -28.46887633 106.99063011 -24.87695122 106.98750877 C-23.15174005 106.98802297 -21.42652365 106.99327904 -19.70134163 107.00332069 C-17.29029615 107.01563113 -14.88002681 107.00892636 -12.46899414 106.99731445 C-11.75356445 107.00495819 -11.03813477 107.01260193 -10.30102539 107.02047729 C-7.45491523 106.99011629 -5.4666418 106.93525517 -3.06021118 105.33529663 C-1.16656677 102.28053386 -1.51639546 98.73102313 -1.48828125 95.23828125 C-1.46135445 94.01276802 -1.46135445 94.01276802 -1.43388367 92.76249695 C-1.37972212 90.15421706 -1.34586692 87.54612075 -1.3125 84.9375 C-1.27933201 83.16859421 -1.24484283 81.39971267 -1.20898438 79.63085938 C-1.12399254 75.29570527 -1.05720965 70.96060616 -1 66.625 C-0.05125 66.356875 0.8975 66.08875 1.875 65.8125 C5.25267273 64.87513412 5.25267273 64.87513412 7 61.625 C6.95495444 56.86711443 5.41509764 54.47524421 2.07649231 51.16065979 C1.53175766 50.64486862 0.98702301 50.12907745 0.42578125 49.59765625 C-0.13567093 49.04565048 -0.69712311 48.49364471 -1.27558899 47.9249115 C-3.06808874 46.166882 -4.8768315 44.4267931 -6.6875 42.6875 C-8.47680525 40.94849553 -10.26249092 39.2058985 -12.04585266 37.46080017 C-13.15363193 36.37898871 -14.26533695 35.30117598 -15.38175964 34.22828674 C-18.69318474 31.0207419 -21.74356278 27.68043635 -24.69586182 24.1388092 C-26.33812067 22.23251845 -28.1315424 20.60979217 -30.0625 19 C-33.19474077 16.33998637 -36.09349714 13.53150286 -39 10.625 C-41.80034896 8.33355203 -41.80034896 8.33355203 -44.88774109 8.7416687 C-48.54811734 9.78056842 -50.10558789 11.09177709 -52.79614258 13.75830078 C-54.14202202 15.07569748 -54.14202202 15.07569748 -55.51509094 16.41970825 C-56.4756181 17.3858673 -57.43541418 18.35275363 -58.39453125 19.3203125 C-59.39181617 20.31168447 -60.38976703 21.30238693 -61.38835144 22.29244995 C-63.47520625 24.36744092 -65.55252964 26.45142796 -67.6237793 28.54199219 C-70.27283905 31.21392898 -72.94592121 33.86024541 -75.62692738 36.5000782 C-77.69232671 38.53984349 -79.74339363 40.59356174 -81.79056358 42.65160751 C-82.77038188 43.63290804 -83.75477304 44.60966544 -84.74384499 45.58163834 C-86.1272937 46.9450237 -87.48954119 48.32982037 -88.85083008 49.71533203 C-90.01948357 50.88662155 -90.01948357 50.88662155 -91.21174622 52.08157349 C-93.46806378 55.29072532 -93.81097452 57.7391982 -94 61.625 C-92.3072108 64.84129947 -91.48819868 65.46226711 -88 66.625 C-87.67 78.505 -87.34 90.385 -87 102.625 C-92.62906137 96.99593863 -92.62906137 96.99593863 -94.75390625 93.48046875 C-95.21603516 92.72056641 -95.67816406 91.96066406 -96.15429688 91.17773438 C-96.61900391 90.39720703 -97.08371094 89.61667969 -97.5625 88.8125 C-98.03107422 88.04357422 -98.49964844 87.27464844 -98.98242188 86.48242188 C-109.06050717 69.77958121 -112.38427241 52.19454197 -108.08984375 32.71875 C-104.68346809 20.19747239 -97.97377493 10.77410623 -89 1.625 C-88.47019531 1.07070313 -87.94039062 0.51640625 -87.39453125 -0.0546875 C-63.27025967 -23.00065276 -24.82018995 -19.38862484 0 0 Z " fill="#FAFBFD" transform="translate(299,424.375)"/>
<path d="M0 0 C4.14597256 2.93673057 7.15019542 6.28992293 10.37109375 10.18359375 C12.62717774 12.69937086 15.15908405 14.80452057 17.77734375 16.93359375 C19.72397913 18.74338306 21.38344119 20.57252449 23.10546875 22.58984375 C25.93606447 25.87424239 28.90882531 28.92886274 32.0234375 31.9453125 C32.89871094 32.79480469 33.77398437 33.64429688 34.67578125 34.51953125 C36.49131325 36.2720057 38.31439115 38.01669287 40.14453125 39.75390625 C41.01207031 40.60082031 41.87960937 41.44773437 42.7734375 42.3203125 C43.56153809 43.07586426 44.34963867 43.83141602 45.16162109 44.60986328 C47.36850883 47.47911041 47.8328778 49.40656877 48 53 C46.375 55.875 46.375 55.875 44 58 C41.3515625 58.1328125 41.3515625 58.1328125 39 58 C39.0314209 59.64983887 39.0314209 59.64983887 39.06347656 61.33300781 C39.13593635 65.41799881 39.18182115 69.50293314 39.21972656 73.58837891 C39.2398285 75.35572872 39.26711472 77.12301213 39.30175781 78.89013672 C39.35034009 81.43213285 39.37298226 83.97324896 39.390625 86.515625 C39.41127014 87.30430969 39.43191528 88.09299438 39.45318604 88.90557861 C39.45453694 92.21646945 39.38081531 94.46028313 37.44255066 97.20732117 C34.1734596 99.60662876 31.36959654 99.56948118 27.46508789 99.53344727 C26.33509117 99.54637062 26.33509117 99.54637062 25.18226624 99.55955505 C22.69537869 99.58223271 20.20961647 99.57547308 17.72265625 99.56640625 C15.99156866 99.57164137 14.26048392 99.57791744 12.52940369 99.58518982 C8.90203425 99.59559753 5.27505699 99.59102786 1.64770508 99.57641602 C-2.99758198 99.55923422 -7.64163143 99.58271319 -12.28678036 99.61790562 C-15.86166051 99.6398827 -19.43624473 99.63843735 -23.01117134 99.6301403 C-24.72357096 99.62932082 -26.4359923 99.63618383 -28.14832878 99.65091133 C-30.54488685 99.6683625 -32.93922404 99.65381288 -35.33569336 99.63110352 C-36.39333893 99.64864182 -36.39333893 99.64864182 -37.47235107 99.66653442 C-41.26909769 99.5934524 -42.91545649 99.0659859 -45.94354248 96.70257568 C-48.70329654 93.0757348 -48.63639843 90.00824202 -48.48828125 85.63671875 C-48.48120651 84.84473587 -48.47413177 84.05275299 -48.46684265 83.23677063 C-48.43896244 80.71936611 -48.376242 78.20422644 -48.3125 75.6875 C-48.28740861 73.9759437 -48.26459691 72.26435235 -48.24414062 70.55273438 C-48.18915747 66.36762346 -48.10293418 62.18419504 -48 58 C-48.62261719 57.86851562 -49.24523437 57.73703125 -49.88671875 57.6015625 C-52 57 -52 57 -53.8125 55.375 C-55.54446829 51.91106343 -54.85767567 49.72685323 -54 46 C-52.14686584 43.41860962 -52.14686584 43.41860962 -49.69555664 40.99853516 C-48.78113297 40.08133698 -47.86670929 39.16413879 -46.92457581 38.21914673 C-45.92015797 37.24205227 -44.9153419 36.26536705 -43.91015625 35.2890625 C-42.88380879 34.27137702 -41.85871555 33.25242523 -40.83482361 32.23226929 C-38.14447363 29.55909954 -35.43616591 26.90485291 -32.72406006 24.25378418 C-30.50889202 22.08231248 -28.30687582 19.89776758 -26.1054163 17.71241188 C-23.48207837 15.10865754 -20.85330041 12.51043306 -18.22265625 9.9140625 C-17.7201491 9.41798115 -17.21764194 8.9218998 -16.6999073 8.41078568 C-15.28078389 7.01260705 -13.85741258 5.61874388 -12.43383789 4.22509766 C-11.21924644 3.03432114 -11.21924644 3.03432114 -9.9801178 1.81948853 C-6.45277294 -1.42171435 -4.58427848 -1.23422882 0 0 Z " fill="#34A2F1" transform="translate(259,433)"/>
<path d="M0 0 C4.95 0 9.9 0 15 0 C18.04378027 3.65855038 19.2957141 5.76835548 21 10 C21.99510998 11.90589972 23.00716385 13.80303943 24.03515625 15.69140625 C25.04746185 17.6467888 26.05655903 19.60383558 27.0625 21.5625 C30.60579683 28.43586069 34.19625439 35.26658329 38 42 C38.34667725 41.32646484 38.69335449 40.65292969 39.05053711 39.95898438 C50.76135338 17.23818097 50.76135338 17.23818097 56.25 7.5 C56.61988037 6.84322266 56.98976074 6.18644531 57.37084961 5.50976562 C59.8575004 1.1424996 59.8575004 1.1424996 61 0 C65.95 0 70.9 0 76 0 C76 24.09 76 48.18 76 73 C71.71 73 67.42 73 63 73 C62.67 57.49 62.34 41.98 62 26 C59.2465625 31.32125 59.2465625 31.32125 56.4375 36.75 C55.32671554 38.86199213 54.21395461 40.9729483 53.09765625 43.08203125 C51.33153325 46.42778565 49.60755983 49.77647518 47.99609375 53.19921875 C47.46113281 54.26785156 46.92617188 55.33648437 46.375 56.4375 C45.94960938 57.34371094 45.52421875 58.24992187 45.0859375 59.18359375 C41.97464926 61.8928616 39.06339782 61.34360046 35.06884766 61.16040039 C34.38612793 61.10746826 33.7034082 61.05453613 33 61 C31.5184498 58.35547929 30.03978901 55.7094004 28.5625 53.0625 C28.16095703 52.34642578 27.75941406 51.63035156 27.34570312 50.89257812 C22.75795611 42.66265027 18.41266719 34.33503802 14 26 C13.67 41.51 13.34 57.02 13 73 C8.71 73 4.42 73 0 73 C0 48.91 0 24.82 0 0 Z " fill="#14304E" transform="translate(652,417)"/>
<path d="M0 0 C5.89875 -0.103125 11.7975 -0.20625 17.875 -0.3125 C20.63593018 -0.38078003 20.63593018 -0.38078003 23.45263672 -0.45043945 C32.10500456 -0.57630446 39.8865562 -0.67229794 47 5 C52.9059376 11.39550679 54.32816768 16.33688811 54.203125 24.99609375 C53.78142943 31.23232245 51.54294812 34.74497799 47.0625 38.875 C44.36585418 41.19234882 42.44520494 42.23918952 39 43 C39.33733154 43.589021 39.67466309 44.17804199 40.0222168 44.78491211 C41.57790157 47.50210388 43.1327052 50.21979889 44.6875 52.9375 C45.21794922 53.86369141 45.74839844 54.78988281 46.29492188 55.74414062 C49.571763 61.47358676 52.80667435 67.22357606 56 73 C50.39 73 44.78 73 39 73 C38.16855469 71.46988281 37.33710938 69.93976563 36.48046875 68.36328125 C35.38286857 66.34632365 34.28520922 64.32939826 33.1875 62.3125 C32.64029297 61.30509766 32.09308594 60.29769531 31.52929688 59.25976562 C30.73168945 57.79506836 30.73168945 57.79506836 29.91796875 56.30078125 C29.43094482 55.40528564 28.9439209 54.50979004 28.44213867 53.5871582 C27.96623291 52.733396 27.49032715 51.87963379 27 51 C26.67169189 50.08629639 26.34338379 49.17259277 26.00512695 48.23120117 C23.26742228 44.67603842 23.26742228 44.67603842 13 45 C13 54.24 13 63.48 13 73 C8.71 73 4.42 73 0 73 C0 48.91 0 24.82 0 0 Z " fill="#13304F" transform="translate(384,417)"/>
<path d="M0 0 C4.29 0 8.58 0 13 0 C13 24.75 13 49.5 13 75 C9.04 75 5.08 75 1 75 C0.67 73.02 0.34 71.04 0 69 C-1.299375 70.175625 -1.299375 70.175625 -2.625 71.375 C-7.44440199 75.34061516 -12.39327952 76.54155991 -18.56640625 76.375 C-25.62497422 75.28732339 -31.2692586 71.46471943 -35.74609375 66.0390625 C-39.3472428 60.18298835 -40.53209285 55.40822294 -40.4375 48.625 C-40.43137695 47.87766602 -40.42525391 47.13033203 -40.41894531 46.36035156 C-40.25394399 40.52945868 -39.21660412 35.94862173 -36 31 C-35.195625 29.63875 -35.195625 29.63875 -34.375 28.25 C-29.04366446 23.19926107 -23.22257367 20.69792033 -15.875 20.4375 C-10.34157107 20.66597707 -5.07001496 21.92998504 -1 26 C-0.67 17.42 -0.34 8.84 0 0 Z " fill="#153351" transform="translate(555,512)"/>
<path d="M0 0 C10.15244371 4.59874067 22.06021059 14.84275424 27 25 C30.31484645 36.52939642 28.00140131 49.46211534 27 61 C9.84 61 -7.32 61 -25 61 C-28.13052865 28.06683862 -28.13052865 28.06683862 -21.04759216 18.90196228 C-14.84508629 11.75795384 -7.54867841 5.66953932 0 0 Z " fill="#FAFCFD" transform="translate(254,454)"/>
<path d="M0 0 C2.54235101 1.05318973 3.88362121 2.15495183 6 4 C7.3191582 4.69429379 8.64649406 5.37530495 10 6 C10.7425 5.38125 11.485 4.7625 12.25 4.125 C18.58336022 -0.76896017 24.14309245 -0.6171885 32 0 C37.83093512 1.87422914 41.28009547 5.75108472 44.12841797 11.1315918 C45.34330965 15.12984456 45.24715372 18.86487504 45.1953125 23.01953125 C45.1924826 23.87810226 45.18965271 24.73667328 45.18673706 25.6212616 C45.1755807 28.35181875 45.15048459 31.0820427 45.125 33.8125 C45.11496432 35.66861504 45.1058395 37.52473524 45.09765625 39.38085938 C45.07565626 43.92070046 45.04115781 48.46029381 45 53 C40.71 53 36.42 53 32 53 C31.99589111 51.93563721 31.99178223 50.87127441 31.98754883 49.7746582 C31.96572552 45.81388366 31.91140394 41.85409805 31.84741211 37.89379883 C31.82425975 36.18198141 31.80984285 34.4700221 31.80444336 32.75805664 C31.79513297 30.29223502 31.75410221 27.82863626 31.70703125 25.36328125 C31.7109639 24.60163162 31.71489655 23.83998199 31.71894836 23.05525208 C31.60929762 19.03404069 31.15125318 17.19004637 28.61645508 14.00512695 C25.63710541 11.72189481 24.54097674 11.41535154 20.875 11.875 C20.02679687 11.95492188 19.17859375 12.03484375 18.3046875 12.1171875 C15.02674769 13.37280512 14.48493465 14.83971429 13 18 C12.68151612 20.78471085 12.51233841 23.35937937 12.48828125 26.14453125 C12.47033005 26.91431808 12.45237885 27.68410492 12.43388367 28.47721863 C12.37994613 30.92225764 12.34593927 33.36710332 12.3125 35.8125 C12.27931218 37.47593826 12.24482116 39.13935107 12.20898438 40.80273438 C12.12422963 44.86834971 12.05734027 48.93390936 12 53 C7.71 53 3.42 53 -1 53 C-1.029729 51.39560059 -1.029729 51.39560059 -1.06005859 49.75878906 C-1.1362098 45.78524488 -1.22491242 41.81206234 -1.31738281 37.83886719 C-1.35563327 36.12018989 -1.39049303 34.40143362 -1.421875 32.68261719 C-1.46761128 30.2099996 -1.52559084 27.73792387 -1.5859375 25.265625 C-1.59748871 24.49881409 -1.60903992 23.73200317 -1.62094116 22.94195557 C-1.75461827 17.65790452 -1.75461827 17.65790452 -4 13 C-7.68876027 11.15561987 -11.97330313 11.51211266 -16 12 C-18.57637471 13.88515223 -19.59667428 15.19334857 -21 18 C-21.15660883 20.62380313 -21.2582908 23.22524852 -21.31640625 25.8515625 C-21.33718735 26.62559418 -21.35796844 27.39962585 -21.37937927 28.19711304 C-21.44483448 30.67298392 -21.50374087 33.14896202 -21.5625 35.625 C-21.60568907 37.30209448 -21.64930348 38.97917807 -21.69335938 40.65625 C-21.80051171 44.77072308 -21.90179045 48.88530414 -22 53 C-26.29 53 -30.58 53 -35 53 C-35 35.84 -35 18.68 -35 1 C-30.71 1 -26.42 1 -22 1 C-21.67 2.32 -21.34 3.64 -21 5 C-20.57332031 4.6390625 -20.14664063 4.278125 -19.70703125 3.90625 C-13.50499033 -0.69732676 -7.54757074 -1.09228208 0 0 Z " fill="#143251" transform="translate(597,437)"/>
<path d="M0 0 C7.45537213 5.76252387 11.85635055 11.70807366 13.08203125 21.2734375 C13.42616124 29.92109104 11.2086444 36.41074366 6.578125 43.62890625 C-0.28740014 50.04667975 -7.07077136 52.06449704 -16.3894043 51.90576172 C-23.57471012 51.51155541 -28.980186 49.56944876 -34.12890625 44.51953125 C-39.82360385 37.59167529 -41.9381504 29.90419643 -41.640625 21.015625 C-40.62838085 13.06720787 -36.22413679 6.55747805 -30.296875 1.31640625 C-22.17140147 -4.53459396 -8.56690698 -5.34500501 0 0 Z " fill="#13304F" transform="translate(542.296875,439.68359375)"/>
<path d="M0 0 C5.87993646 4.18380094 9.73036579 9.14260092 12 16 C12.85221097 24.67075115 12.87833001 33.47070075 8 41 C2.85975316 46.8761607 -3.0040047 50.51563693 -10.8671875 51.46875 C-12.20273107 51.50282167 -13.53908237 51.5127123 -14.875 51.5 C-15.57608887 51.49427979 -16.27717773 51.48855957 -16.99951172 51.48266602 C-25.00766199 51.20744956 -29.97674981 48.40021136 -35.375 42.6875 C-41.61710599 34.55542303 -42.10848947 25.99751936 -41 16 C-38.48205515 7.46136925 -33.31428177 2.641397 -25.9375 -1.875 C-17.79240575 -4.97087293 -7.60305977 -3.93729881 0 0 Z " fill="#13304E" transform="translate(482,440)"/>
<path d="M0 0 C5.23558332 3.93852199 7.75923331 8.62269266 10.16015625 14.625 C10.16015625 18.915 10.16015625 23.205 10.16015625 27.625 C-1.71984375 27.625 -13.59984375 27.625 -25.83984375 27.625 C-23.4697933 35.4703188 -23.4697933 35.4703188 -17.83984375 39.625 C-14.08740517 40.16752124 -10.58828318 40.22017206 -6.83984375 39.625 C-6.03546875 38.965 -5.23109375 38.305 -4.40234375 37.625 C-0.13805769 34.29677673 4.94269024 35.32543257 10.16015625 35.625 C8.91044997 41.45696263 6.02145557 44.46382722 1.16015625 47.625 C-3.87021136 50.18260859 -8.18283298 51.14759016 -13.77734375 51.0625 C-14.83284424 51.05005249 -14.83284424 51.05005249 -15.90966797 51.03735352 C-23.41788479 50.79276635 -27.90759266 48.87239274 -33.08984375 43.5625 C-38.08431411 37.17612806 -40.62572911 29.25336806 -40.21484375 21.1640625 C-38.84935831 11.91858819 -35.23619257 5.36209186 -27.83984375 -0.375 C-19.40636854 -5.66659229 -8.45090239 -4.83693926 0 0 Z " fill="#163250" transform="translate(866.83984375,440.375)"/>
<path d="M0 0 C6.90192074 4.37849122 10.05334593 10.21338371 12 18 C12 21.3 12 24.6 12 28 C-0.21 28 -12.42 28 -25 28 C-22.94861814 36.49602929 -22.94861814 36.49602929 -19.3125 39.5625 C-15.29911281 41.30415859 -12.30237437 41.72848968 -8 41 C-4.68782037 39.65059348 -2.5207227 38.5207227 0 36 C2.09375 35.76953125 2.09375 35.76953125 4.5 35.8125 C5.69109375 35.82216797 5.69109375 35.82216797 6.90625 35.83203125 C9 36 9 36 11 37 C9.9683451 42.4161882 7.63273263 44.68050246 3.26953125 47.67578125 C-4.04715936 51.94490021 -11.83654373 53.33504468 -20.1640625 51.53125 C-27.14310921 49.26777539 -32.15666311 44.93225307 -35.9375 38.6875 C-39.52172346 30.81649765 -39.4666145 21.13638117 -37.11328125 12.89453125 C-33.93970016 5.925305 -29.24287999 1.83559245 -22.6875 -1.875 C-14.91862842 -4.24516421 -7.29963423 -3.59554474 0 0 Z " fill="#163250" transform="translate(613,536)"/>
<path d="M0 0 C4.18391301 1.88051144 7.01268711 5.15058764 9.5 8.9375 C10.40208123 11.6437437 10.62227599 13.17600986 10.61352539 15.94995117 C10.61344986 16.75055466 10.61337433 17.55115814 10.61329651 18.37602234 C10.60813522 19.23548965 10.60297394 20.09495697 10.59765625 20.98046875 C10.5962413 21.8640657 10.59482635 22.74766266 10.59336853 23.65803528 C10.58777069 26.48039128 10.57521861 29.30266797 10.5625 32.125 C10.55748472 34.03841031 10.55292186 35.95182187 10.54882812 37.86523438 C10.53780197 42.55602014 10.52053883 47.24674663 10.5 51.9375 C7.2 51.9375 3.9 51.9375 0.5 51.9375 C0.005 48.9675 0.005 48.9675 -0.5 45.9375 C-0.97050781 46.35902344 -1.44101562 46.78054688 -1.92578125 47.21484375 C-2.54839844 47.76269531 -3.17101562 48.31054688 -3.8125 48.875 C-4.42738281 49.42027344 -5.04226563 49.96554687 -5.67578125 50.52734375 C-10.60969517 54.34135429 -17.61138622 53.54930403 -23.5 52.9375 C-28.01280013 51.31930892 -30.69932786 49.0384242 -33.5 45.1875 C-35.23843114 39.5375988 -35.51010848 34.99656728 -32.875 29.625 C-29.56444743 25.8788484 -26.24466151 23.51905384 -21.5 21.9375 C-19.87280518 21.85606145 -18.24248281 21.8299698 -16.61328125 21.83984375 C-15.67548828 21.84306641 -14.73769531 21.84628906 -13.77148438 21.84960938 C-12.79501953 21.85798828 -11.81855469 21.86636719 -10.8125 21.875 C-9.82443359 21.87951172 -8.83636719 21.88402344 -7.81835938 21.88867188 C-5.37884526 21.90045697 -2.93945311 21.91690989 -0.5 21.9375 C-0.75662245 20.49739519 -1.03090821 19.0604313 -1.3125 17.625 C-1.46332031 16.82449219 -1.61414063 16.02398437 -1.76953125 15.19921875 C-2.58687903 12.66850021 -3.44352941 11.58881519 -5.5 9.9375 C-10.15746088 8.45598387 -13.57551515 8.46685317 -17.9375 10.6875 C-20.63629384 12.86109285 -20.63629384 12.86109285 -22.5 15.9375 C-25.8 15.6075 -29.1 15.2775 -32.5 14.9375 C-31.17863146 9.51988899 -28.64973389 5.59955149 -24.5 1.9375 C-17.25338936 -2.46149885 -8.04957748 -2.5018957 0 0 Z " fill="#122E4C" transform="translate(771.5,438.0625)"/>
<path d="M0 0 C15.51 0 31.02 0 47 0 C47 3.96 47 7.92 47 12 C35.78 12 24.56 12 13 12 C13 18.6 13 25.2 13 32 C22.57 32 32.14 32 42 32 C42 35.63 42 39.26 42 43 C32.43 43 22.86 43 13 43 C13 52.9 13 62.8 13 73 C8.71 73 4.42 73 0 73 C0 48.91 0 24.82 0 0 Z " fill="#183654" transform="translate(384,513)"/>
<path d="M0 0 C3.30181443 2.42656198 4.51517241 4.83370572 6.13671875 8.5703125 C6.63171875 9.5603125 6.63171875 9.5603125 7.13671875 10.5703125 C7.22370103 13.48730524 7.25223798 16.38013798 7.234375 19.296875 C7.23296005 20.15969086 7.2315451 21.02250671 7.23008728 21.91146851 C7.22448063 24.6727848 7.21192702 27.43402062 7.19921875 30.1953125 C7.19420461 32.065103 7.18964155 33.93489476 7.18554688 35.8046875 C7.17450904 40.39326027 7.15723995 44.98177273 7.13671875 49.5703125 C2.84671875 49.5703125 -1.44328125 49.5703125 -5.86328125 49.5703125 C-5.89301025 48.01135254 -5.89301025 48.01135254 -5.92333984 46.42089844 C-5.99950249 42.55916414 -6.08820325 38.6978014 -6.18066406 34.83642578 C-6.21890982 33.16625309 -6.2537704 31.49599927 -6.28515625 29.82568359 C-6.33090286 27.42255693 -6.3888805 25.01998666 -6.44921875 22.6171875 C-6.46076996 21.87225037 -6.47232117 21.12731323 -6.48422241 20.35980225 C-6.5895803 16.64584329 -6.72721727 13.68697572 -8.86328125 10.5703125 C-12.3069212 8.0194681 -15.70616086 8.14026556 -19.86328125 8.5703125 C-24.10356744 10.8291062 -24.10356744 10.8291062 -26.86328125 14.5703125 C-27.01989008 17.19411563 -27.12157205 19.79556102 -27.1796875 22.421875 C-27.2004686 23.19590668 -27.22124969 23.96993835 -27.24266052 24.76742554 C-27.30811573 27.24329642 -27.36702212 29.71927452 -27.42578125 32.1953125 C-27.46897032 33.87240698 -27.51258473 35.54949057 -27.55664062 37.2265625 C-27.66379296 41.34103558 -27.7650717 45.45561664 -27.86328125 49.5703125 C-32.15328125 49.5703125 -36.44328125 49.5703125 -40.86328125 49.5703125 C-40.86328125 32.4103125 -40.86328125 15.2503125 -40.86328125 -2.4296875 C-36.90328125 -2.4296875 -32.94328125 -2.4296875 -28.86328125 -2.4296875 C-28.53328125 -0.7796875 -28.20328125 0.8703125 -27.86328125 2.5703125 C-27.14140625 1.9515625 -26.41953125 1.3328125 -25.67578125 0.6953125 C-17.52271047 -5.46478542 -8.73168242 -4.7976277 0 0 Z " fill="#132F4D" transform="translate(500.86328125,536.4296875)"/>
<path d="M0 0 C4.29 0 8.58 0 13 0 C13 5.61 13 11.22 13 17 C16.96 17 20.92 17 25 17 C25 20.63 25 24.26 25 28 C21.04 28 17.08 28 13 28 C13.06889805 31.93327952 13.15687179 35.86562514 13.26245117 39.7980957 C13.31201319 41.7929063 13.34651133 43.78807257 13.38085938 45.78320312 C13.4340332 47.66362305 13.4340332 47.66362305 13.48828125 49.58203125 C13.51446533 50.73936768 13.54064941 51.8967041 13.56762695 53.08911133 C13.76427954 55.99406603 13.76427954 55.99406603 15.40429688 57.8828125 C17.46131041 59.32297375 18.70194922 59.3097402 21.1875 59.1875 C22.445625 59.125625 23.70375 59.06375 25 59 C25.495 64.445 25.495 64.445 26 70 C18.26989855 71.54602029 11.92959026 71.9585758 4.69140625 68.55859375 C1.11692633 65.26478893 0.0851461 60.93306695 -0.34057617 56.26782227 C-0.32486572 54.96385498 -0.30915527 53.6598877 -0.29296875 52.31640625 C-0.28872391 51.61603745 -0.28447906 50.91566864 -0.28010559 50.19407654 C-0.26347156 47.98314 -0.2258518 45.77315543 -0.1875 43.5625 C-0.17243326 42.05274765 -0.15874836 40.54298084 -0.14648438 39.03320312 C-0.11361921 35.35516566 -0.06194582 31.67767593 0 28 C-2.97 28 -5.94 28 -9 28 C-9 24.37 -9 20.74 -9 17 C-6.03 17 -3.06 17 0 17 C0 11.39 0 5.78 0 0 Z " fill="#122E4C" transform="translate(798,420)"/>
<path d="M0 0 C4.29 0 8.58 0 13 0 C13.33 1.98 13.66 3.96 14 6 C14.94875 5.195625 15.8975 4.39125 16.875 3.5625 C21.38712054 -0.2629935 24.16375665 -0.09413296 30 0 C30 3.96 30 7.92 30 12 C26.6796875 12.68359375 26.6796875 12.68359375 23.359375 13.3671875 C19.40375553 14.4281318 17.59608339 15.00986117 15.41381836 18.63476562 C13.84392784 22.37149002 13.57459606 25.10890429 13.48828125 29.1484375 C13.47033005 29.80582916 13.45237885 30.46322083 13.43388367 31.14053345 C13.38015563 33.21862572 13.34600875 35.29649347 13.3125 37.375 C13.27929347 38.79299976 13.24480076 40.21097001 13.20898438 41.62890625 C13.12205254 45.08596299 13.06167345 48.54203353 13 52 C8.71 52 4.42 52 0 52 C0 34.84 0 17.68 0 0 Z " fill="#112C4B" transform="translate(632,534)"/>
<path d="M0 0 C4.17921173 4.05256895 6.27805778 8.66897265 6.5 14.5 C6.20041806 20.28193135 4.75810023 24.99610882 1 29.4375 C-3.24809758 31.69712637 -7.14214154 32.31420445 -11.9375 32 C-15.81939868 30.77109353 -18.35350768 28.77865643 -20.8125 25.5 C-23.34475019 19.87277736 -24.11299163 13.69257695 -22.21875 7.7421875 C-20.79878304 4.63887261 -19.33055473 2.38114398 -16.875 0 C-11.36121303 -1.87703386 -5.51378697 -1.87703386 0 0 Z " fill="#F8F9FA" transform="translate(475.9375,449)"/>
<path d="M0 0 C3.46442155 1.61628845 5.43372255 3.84393185 7.12890625 7.3046875 C9.03069308 13.18914001 8.78570111 19.68424935 6.8125 25.5 C4.27129417 29.00511149 2.18841291 31.40941167 -2.11328125 32.5703125 C-7.25665871 33.3828797 -10.60030683 33.06955337 -15 30 C-20.04413751 24.54687837 -20.29280022 20.12987539 -20.21484375 12.94921875 C-19.85718516 8.03954175 -18.09835701 5.3463731 -15.0625 1.625 C-10.18369332 -0.96375457 -5.39502296 -0.84685069 0 0 Z " fill="#F9FAFB" transform="translate(534,448)"/>
<path d="M0 0 C5.10209922 2.69544864 8.17381037 5.5214311 10 11 C10.69102362 18.01219052 10.50276414 24.29463426 6 30 C2.1531089 32.79773898 -1.37498222 33.55294055 -6.04296875 33.34765625 C-9.44375839 32.74352396 -11.44572722 31.25726432 -14 29 C-17.91322772 22.53385705 -17.7859229 16.36147785 -17 9 C-15.77774491 5.40551864 -13.65423059 3.54519216 -10.75 1.125 C-7.10441212 -0.36637686 -3.84486501 -0.68604454 0 0 Z " fill="#F8F9FA" transform="translate(545,544)"/>
<path d="M0 0 C4.29 0 8.58 0 13 0 C13 17.16 13 34.32 13 52 C8.71 52 4.42 52 0 52 C0 34.84 0 17.68 0 0 Z " fill="#102C4A" transform="translate(438,534)"/>
<path d="M0 0 C3.01125 -0.0825 6.0225 -0.165 9.125 -0.25 C10.06230957 -0.28641602 10.99961914 -0.32283203 11.96533203 -0.36035156 C17.47922855 -0.43316553 20.67167183 0.25147903 25 4 C27.69080456 8.03620685 27.66642423 11.26005764 27 16 C25.1611918 19.32399944 23.88239495 20.61860339 20.40625 22.12109375 C16.2140161 23.20280548 12.4268019 23.2190421 8.125 23.125 C5.44375 23.08375 2.7625 23.0425 0 23 C0 15.41 0 7.82 0 0 Z " fill="#FAFBFB" transform="translate(397,428)"/>
<path d="M0 0 C7.26 0 14.52 0 22 0 C22 6.6 22 13.2 22 20 C14.74 20 7.48 20 0 20 C0 13.4 0 6.8 0 0 Z " fill="#2F9FF1" transform="translate(244,481)"/>
<path d="M0 0 C15.51 0 31.02 0 47 0 C47 3.63 47 7.26 47 11 C35.45 11 23.9 11 12 11 C12 10.67 12 10.34 12 10 C22.89 10 33.78 10 45 10 C45 7.36 45 4.72 45 2 C30.81 2 16.62 2 2 2 C2 24.77 2 47.54 2 71 C4.64 71 7.28 71 10 71 C10.33 61.76 10.66 52.52 11 43 C11.33 43 11.66 43 12 43 C12 52.9 12 62.8 12 73 C8.04 73 4.08 73 0 73 C0 48.91 0 24.82 0 0 Z " fill="#07193B" transform="translate(384,513)"/>
<path d="M0 0 C0.70189453 0.00451172 1.40378906 0.00902344 2.12695312 0.01367188 C3.85550538 0.02543073 5.58401365 0.04336546 7.3125 0.0625 C6.14267625 9.21156935 6.14267625 9.21156935 2.8125 12.625 C-1.38844048 15.04054077 -4.83657944 15.87715842 -9.6875 15.0625 C-12.75 12.9375 -12.75 12.9375 -14.6875 10.0625 C-14.6875 6.72987533 -14.33101838 4.91077423 -12.3125 2.25 C-8.53855519 -0.50788275 -4.44488159 -0.05395281 0 0 Z " fill="#F2F5F6" transform="translate(763.6875,466.9375)"/>
<path d="M0 0 C4.34420911 2.29987541 6.93057404 4.51624375 9 9 C9 9.99 9 10.98 9 12 C1.08 12 -6.84 12 -15 12 C-13.8546977 6.27348852 -12.87318315 5.05762044 -9 1 C-5.64870516 -0.11709828 -3.51689744 -0.34479387 0 0 Z " fill="#F8F9FA" transform="translate(856,446)"/>
<path d="M0 0 C2.86972365 1.32889399 3.87079518 2.48863021 6 5 C6.33 6.98 6.66 8.96 7 11 C-0.92 11 -8.84 11 -17 11 C-16.01221524 6.06107618 -15.26400276 4.56073029 -12 1 C-8.26547837 -0.86726081 -4.06650753 -0.54801327 0 0 Z " fill="#F9FAFB" transform="translate(605,543)"/>
<path d="M0 0 C4.29 0 8.58 0 13 0 C13 24.75 13 49.5 13 75 C9.37 75 5.74 75 2 75 C2.495 74.01 2.495 74.01 3 73 C5.64 73.33 8.28 73.66 11 74 C11 50.24 11 26.48 11 2 C7.7 2 4.4 2 1 2 C1 10.25 1 18.5 1 27 C0.67 27 0.34 27 0 27 C0 18.09 0 9.18 0 0 Z " fill="#1B2946" transform="translate(555,512)"/>
<path d="M0 0 C1.9375 1.125 1.9375 1.125 3 3 C3.5 6.4375 3.5 6.4375 3 10 C0.9375 12.5 0.9375 12.5 -2 14 C-5.80284671 14 -8.01930006 13.7968187 -11 11.375 C-12.46981805 7.88418213 -11.98413921 5.60851044 -11 2 C-7.79952331 -1.93904824 -4.62362797 -1.17692348 0 0 Z " fill="#142E4D" transform="translate(449,513)"/>
<path d="M0 0 C4.29 0 8.58 0 13 0 C13 0.33 13 0.66 13 1 C9.37 1 5.74 1 2 1 C2 17.17 2 33.34 2 50 C5.3 50 8.6 50 12 50 C12 39.44 12 28.88 12 18 C12.33 18 12.66 18 13 18 C13 29.22 13 40.44 13 52 C8.71 52 4.42 52 0 52 C0 34.84 0 17.68 0 0 Z " fill="#162440" transform="translate(562,438)"/>
<path d="M0 0 C0.33 0 0.66 0 1 0 C1.82222554 4.29605732 2.11770795 8.33966603 2.09765625 12.7109375 C2.09443359 13.95488281 2.09121094 15.19882812 2.08789062 16.48046875 C2.07951172 17.76566406 2.07113281 19.05085938 2.0625 20.375 C2.05798828 21.68339844 2.05347656 22.99179687 2.04882812 24.33984375 C2.03707594 27.55994281 2.02064543 30.7799477 2 34 C5.3 34 8.6 34 12 34 C12 22.78 12 11.56 12 0 C12.33 0 12.66 0 13 0 C13 11.88 13 23.76 13 36 C8.71 36 4.42 36 0 36 C0 24.12 0 12.24 0 0 Z " fill="#02183C" transform="translate(596,454)"/>
<path d="M0 0 C1.485 0.99 1.485 0.99 3 2 C5.0492094 2.45139459 5.0492094 2.45139459 7.1875 2.625 C8.445625 2.74875 9.70375 2.8725 11 3 C11 3.33 11 3.66 11 4 C10.21625 4.12375 9.4325 4.2475 8.625 4.375 C5.85942178 4.79117993 5.85942178 4.79117993 4 7 C0 2.25 0 2.25 0 0 Z " fill="#E5F2FA" transform="translate(213,529)"/>
<path d="M0 0 C-1.33332095 3.99996286 -3.4957827 4.83782337 -7 7 C-7.66 6.67 -8.32 6.34 -9 6 C-7.8803014 4.99406757 -6.7540588 3.9954151 -5.625 3 C-4.68527344 2.1646875 -4.68527344 2.1646875 -3.7265625 1.3125 C-2 0 -2 0 0 0 Z " fill="#081C3B" transform="translate(516,440)"/>
<path d="M0 0 C0.33 0 0.66 0 1 0 C0.67 3.96 0.34 7.92 0 12 C-0.33 12 -0.66 12 -1 12 C-2.42857143 3.42857143 -2.42857143 3.42857143 0 0 Z " fill="#F2F5F7" transform="translate(714,441)"/>
</svg>
